<svg xmlns="http://www.w3.org/2000/svg" viewBox="0 0 520.4 144.9"><defs><style>.cls-1{fill:#2a2e43;}.cls-2{fill:#1f9590;}.cls-3{fill:#44b9b8;}</style></defs><title>logo-e-carnet-bonne-taille</title><g id="Calque_2" data-name="Calque 2"><g id="Calque_1-2" data-name="Calque 1"><rect class="cls-1" x="112.1" y="91.4" width="408.3" height="2.61"/><path class="cls-2" d="M64.5,75H28.9a4.1,4.1,0,0,1-4.1-4.2V5.2a4.1,4.1,0,0,1,4.1-4.1H64.5a4.1,4.1,0,0,1,4.1,4.1v7.7a4.1,4.1,0,0,1-4.1,4.2H48.9a4.2,4.2,0,0,0-4.2,4.2v3.2a4.2,4.2,0,0,0,4.2,4.2H62.7a4.2,4.2,0,0,1,4.2,4.2v7.7a4.1,4.1,0,0,1-4.2,4.1H48.9a4.2,4.2,0,0,0-4.2,4.2v5.6a4.2,4.2,0,0,0,4.2,4.2H64.5a4.1,4.1,0,0,1,4.1,4.2v7.9A4.1,4.1,0,0,1,64.5,75Z"/><path class="cls-1" d="M75.6,50.9V43.5a4.2,4.2,0,0,1,4.2-4.2H100a4.2,4.2,0,0,1,4.2,4.2v7.4a4.2,4.2,0,0,1-4.2,4.2H79.8A4.2,4.2,0,0,1,75.6,50.9Z"/><path class="cls-1" d="M147.2,16.4a12.8,12.8,0,0,0-11.1,5.8c-2.7,3.9-4,9.3-4,16.1q0,21.3,16.2,21.3a33,33,0,0,0,9.5-1.3l3.7-1.2a4.2,4.2,0,0,1,5.6,3.9v8a4.2,4.2,0,0,1-2.8,4,52.1,52.1,0,0,1-18.1,3c-11.2,0-19.7-3.3-25.7-9.7s-8.9-15.9-8.9-28.1A44.8,44.8,0,0,1,115.9,18,30.7,30.7,0,0,1,128.3,4.7,38.1,38.1,0,0,1,147.4,0a51.8,51.8,0,0,1,19.1,3.6A4.2,4.2,0,0,1,168.9,9l-3.1,7.9a4.2,4.2,0,0,1-5.4,2.4L156,17.7A27.5,27.5,0,0,0,147.2,16.4Z"/><path class="cls-1" d="M226,71.8l-2.8-10.7h-24l-2.9,10.8a4.3,4.3,0,0,1-4,3.1H179.2a4.2,4.2,0,0,1-3.9-5.5L196.7,3.6A4,4,0,0,1,200.6.8h20.6a4.2,4.2,0,0,1,4,2.8l21.7,65.9a4.2,4.2,0,0,1-4,5.5H230A4.2,4.2,0,0,1,226,71.8Zm-7-27.1-3.1-12.1q-1.2-4.1-2.7-10.5c-1.1-4.2-1.8-7.3-2.1-9.2-.3,1.8-.9,4.6-1.8,8.5s-2.9,11.7-6,23.3Z"/><path class="cls-1" d="M276.6,48.1V70.8a4.2,4.2,0,0,1-4.2,4.2H260.8a4.1,4.1,0,0,1-4.1-4.2V5.2a4.1,4.1,0,0,1,4.1-4.1h20.1c20,0,30.1,7.2,30.1,21.8,0,8.6-4.2,15.2-12.6,19.9l17.2,25.7a4.2,4.2,0,0,1-3.4,6.5H299.7a4.2,4.2,0,0,1-3.6-2.1L281.7,48.1Zm0-15h3.8c6.9,0,10.4-3.1,10.4-9.3s-3.4-7.6-10.2-7.6h-4Z"/><path class="cls-1" d="M392.9,75H373.4a4.2,4.2,0,0,1-3.7-2.3L343.9,22.9h-.5c.7,8.2,1,14.4,1,18.7V70.8a4.2,4.2,0,0,1-4.2,4.2h-9.3a4.2,4.2,0,0,1-4.2-4.2V5.2a4.1,4.1,0,0,1,4.2-4.1h19.4A4.2,4.2,0,0,1,354,3.3l25.7,49.1h.3c-.5-7.4-.7-13.4-.7-17.9V5.2a4.1,4.1,0,0,1,4.1-4.1h9.5a4.1,4.1,0,0,1,4.2,4.1V70.8A4.2,4.2,0,0,1,392.9,75Z"/><path class="cls-1" d="M452.7,75H417.2a4.2,4.2,0,0,1-4.2-4.2V5.2a4.1,4.1,0,0,1,4.2-4.1h35.5a4.1,4.1,0,0,1,4.2,4.1v7.7a4.2,4.2,0,0,1-4.2,4.2H437.2a4.2,4.2,0,0,0-4.2,4.2v3.2a4.2,4.2,0,0,0,4.2,4.2H451a4.1,4.1,0,0,1,4.1,4.2v7.7a4.1,4.1,0,0,1-4.1,4.1H437.2a4.2,4.2,0,0,0-4.2,4.2v5.6a4.2,4.2,0,0,0,4.2,4.2h15.5a4.1,4.1,0,0,1,4.2,4.1v8A4.2,4.2,0,0,1,452.7,75Z"/><path class="cls-1" d="M498.3,75H486.6a4.1,4.1,0,0,1-4.1-4.2V17.4H468.6a4.2,4.2,0,0,1-4.2-4.2v-8a4.1,4.1,0,0,1,4.2-4.1h47.7a4.1,4.1,0,0,1,4.1,4.1v8a4.1,4.1,0,0,1-4.1,4.2H502.4V70.8A4.1,4.1,0,0,1,498.3,75Z"/><path class="cls-2" d="M36.7,37.6a33.2,33.2,0,0,0,2.5-5.4,28.4,28.4,0,0,1,2.7-5.9c1.6-2.5-1.6-9.2,1.2-10.7l5.6-11a3.8,3.8,0,0,0-4-3.5H28.8a3.7,3.7,0,0,0-4,3.5V29.2H4a3.8,3.8,0,0,0-4,3.6v8.4a3.8,3.8,0,0,0,4,3.5H24.6A16.4,16.4,0,0,0,36.7,37.6Z"/><path class="cls-3" d="M44.7,1.1H28.8a3.7,3.7,0,0,0-4,3.5V29.2H4a3.8,3.8,0,0,0-4,3.6v8.4a2.7,2.7,0,0,0,.3,1.2c9.3.1,18.6-3.9,24.4-10.5,2.5-2.8,4.3-6.1,6.3-9.5v-.2A33.8,33.8,0,0,1,57.4,5.3a70.5,70.5,0,0,1,11.2.1V4.2a3.1,3.1,0,0,0-3.1-3.1Z"/><path class="cls-3" d="M133.5,127.3c-.1-3-.2-6.7-.2-10.3h-.1c-.8,3.2-1.8,6.8-2.8,9.7l-3.1,9.9h-4.5l-2.7-9.8c-.8-2.9-1.6-6.5-2.2-9.8h-.1c-.2,3.4-.3,7.3-.5,10.4l-.4,9.6h-5.3l1.6-25.3h7.6l2.5,8.5c.8,2.9,1.6,6.1,2.1,9h.1c.8-2.9,1.6-6.2,2.4-9.1l2.7-8.4h7.5l1.4,25.3h-5.6Z"/><path class="cls-3" d="M161.9,127.6c0,6.8-4.7,9.8-9.7,9.8s-9.4-3.5-9.4-9.4,3.9-9.7,9.7-9.7S161.9,122.1,161.9,127.6Zm-13.3.2c0,3.2,1.4,5.5,3.8,5.5s3.6-2.2,3.6-5.5-1-5.5-3.6-5.5S148.6,125.1,148.6,127.8Z"/><path class="cls-3" d="M165.4,124.5c0-2.3,0-4.2-.1-5.8h4.9l.3,2.5h.1a6.7,6.7,0,0,1,5.7-2.9c3.7,0,6.5,2.4,6.5,7.8V137h-5.7V126.9c0-2.4-.8-4-2.8-4a3,3,0,0,0-2.9,2.1,3.2,3.2,0,0,0-.3,1.4V137h-5.7Z"/><path class="cls-3" d="M195,132a10.1,10.1,0,0,0,4.9,1.4c1.7,0,2.4-.6,2.4-1.5s-.6-1.4-2.7-2.1c-3.8-1.3-5.2-3.4-5.2-5.5s2.9-6,7.5-6a13.1,13.1,0,0,1,5.1,1l-1,4a8.3,8.3,0,0,0-4-1.1c-1.3,0-2.1.6-2.1,1.5s.7,1.3,2.9,2.1,5,3,5,5.7-2.7,5.9-7.9,5.9a12.7,12.7,0,0,1-6-1.3Z"/><path class="cls-3" d="M228.6,131.1c0,2.4,0,4.4.1,5.9h-4.9l-.3-2.6h-.1a6.5,6.5,0,0,1-5.8,3c-3.7,0-6.4-2.3-6.4-8V118.7h5.7v9.8c0,2.7.9,4.3,2.9,4.3a2.9,2.9,0,0,0,2.8-2,2.3,2.3,0,0,0,.2-1.2V118.7h5.8Z"/><path class="cls-3" d="M239,113.6a2.8,2.8,0,0,1-3.1,2.8,2.7,2.7,0,0,1-2.9-2.8,2.7,2.7,0,0,1,3-2.9A2.8,2.8,0,0,1,239,113.6ZM233.1,137V118.7h5.7V137Z"/><path class="cls-3" d="M247.6,118.7l2.5,8.5a36.9,36.9,0,0,1,1.1,4.5h.1c.3-1.5.6-2.9,1-4.5l2.4-8.5h6L253.8,137h-5.7l-6.6-18.3Z"/><path class="cls-3" d="M269.2,113.6a2.8,2.8,0,0,1-3.1,2.8,2.9,2.9,0,1,1,0-5.7A2.9,2.9,0,0,1,269.2,113.6ZM263.3,137V118.7H269V137Z"/><path class="cls-3" d="M298.9,110.4v21.1c0,2.1.1,4.3.2,5.5H294l-.3-2.7h0a6.4,6.4,0,0,1-5.8,3.1c-4.3,0-7.8-3.7-7.8-9.4s3.8-9.7,8.2-9.7a5.7,5.7,0,0,1,4.8,2h.1v-9.9Zm-5.7,16a3.4,3.4,0,0,0-.1-1,3.3,3.3,0,0,0-3.3-2.8c-2.6,0-3.9,2.3-3.9,5.2s1.5,5.1,3.9,5.1a3.4,3.4,0,0,0,3.3-2.7,6.6,6.6,0,0,0,.1-1.4Z"/><path class="cls-3" d="M310.3,111.3a50.5,50.5,0,0,1-4.5,10.2l-3.5.3a59.9,59.9,0,0,0,2.6-10.1Z"/><path class="cls-3" d="M322.5,137l-.3-1.8h-.1a6.8,6.8,0,0,1-5.3,2.2,5.6,5.6,0,0,1-5.9-5.6c0-4.8,4.3-7,10.8-7v-.3c0-.9-.6-2.3-3.4-2.3a9.8,9.8,0,0,0-5,1.4l-1.1-3.7a15.4,15.4,0,0,1,7.1-1.6c6.2,0,8.1,3.6,8.1,7.9v6.4a25.9,25.9,0,0,0,.3,4.4Zm-.6-8.6c-3-.1-5.4.6-5.4,2.8a2.1,2.1,0,0,0,2.3,2.2,3.2,3.2,0,0,0,3.1-3.1Z"/><path class="cls-3" d="M331.9,124.8c0-2.4-.1-4.4-.1-6.1h4.9l.3,2.5h0a7.3,7.3,0,0,1,6.2-2.9c4,0,7.6,3.5,7.6,9.3s-4.3,9.8-8.4,9.8a5.6,5.6,0,0,1-4.7-2.1h-.1v9.1h-5.7Zm5.7,4.3a4.1,4.1,0,0,0,.1,1.2,3.4,3.4,0,0,0,3.4,2.7c2.4,0,3.9-2,3.9-5.1s-1.3-5.2-3.9-5.2a3.6,3.6,0,0,0-3.4,2.9,3.4,3.4,0,0,0-.1,1Z"/><path class="cls-3" d="M354.3,124.8c0-2.4,0-4.4-.1-6.1h4.9l.3,2.5h.1a7,7,0,0,1,6.1-2.9c4,0,7.6,3.5,7.6,9.3s-4.2,9.8-8.3,9.8a5.8,5.8,0,0,1-4.8-2.1H360v9.1h-5.7Zm5.7,4.3c0,.5.1.9.1,1.2a3.4,3.4,0,0,0,3.4,2.7c2.5,0,3.9-2,3.9-5.1s-1.3-5.2-3.8-5.2a3.6,3.6,0,0,0-3.5,2.9c0,.3-.1.7-.1,1Z"/><path class="cls-3" d="M387.2,137l-.4-1.8h-.1a6.6,6.6,0,0,1-5.2,2.2,5.6,5.6,0,0,1-5.9-5.6c0-4.8,4.2-7,10.7-7v-.3c0-.9-.5-2.3-3.3-2.3a9.9,9.9,0,0,0-5.1,1.4l-1-3.7a15.1,15.1,0,0,1,7.1-1.6c6.1,0,8.1,3.6,8.1,7.9v6.4a27.6,27.6,0,0,0,.2,4.4Zm-.7-8.6c-3-.1-5.3.6-5.3,2.8a2,2,0,0,0,2.2,2.2,2.9,2.9,0,0,0,3.1-3.1Z"/><path class="cls-3" d="M396.6,124.7c0-2.7-.1-4.4-.2-6h4.9l.2,3.4h.2a5.2,5.2,0,0,1,4.9-3.8h1.2v5.4h-1.5c-2.1,0-3.6,1.1-3.9,2.8a5.7,5.7,0,0,0-.1,1.3V137h-5.7Z"/><path class="cls-3" d="M414.9,129.7c.2,2.3,2.5,3.5,5.2,3.5a15.4,15.4,0,0,0,5-.8l.8,3.9a19.6,19.6,0,0,1-6.7,1.1c-6.2,0-9.7-3.6-9.7-9.3s2.8-9.8,9.2-9.8,8.2,4.6,8.2,9.1a11.3,11.3,0,0,1-.2,2.3Zm6.7-3.9c0-1.4-.6-3.7-3.2-3.7s-3.4,2.1-3.5,3.7Z"/><path class="cls-3" d="M436.2,113.6a2.8,2.8,0,0,1-3.1,2.8,2.7,2.7,0,0,1-2.9-2.8,2.7,2.7,0,0,1,3-2.9A2.8,2.8,0,0,1,436.2,113.6ZM430.3,137V118.7H436V137Z"/><path class="cls-3" d="M440.6,110.4h5.7V137h-5.7Z"/><path class="cls-3" d="M450.9,110.4h5.7V137h-5.7Z"/><path class="cls-3" d="M471.6,137l-.3-1.8h-.1a6.8,6.8,0,0,1-5.3,2.2,5.6,5.6,0,0,1-5.9-5.6c0-4.8,4.3-7,10.8-7v-.3c0-.9-.5-2.3-3.4-2.3a9.8,9.8,0,0,0-5,1.4l-1.1-3.7a15.4,15.4,0,0,1,7.1-1.6c6.2,0,8.1,3.6,8.1,7.9v6.4a25.9,25.9,0,0,0,.3,4.4Zm-.6-8.6c-3-.1-5.4.6-5.4,2.8a2.1,2.1,0,0,0,2.3,2.2,3.2,3.2,0,0,0,3.1-3.1Z"/><path class="cls-3" d="M498.5,118.7c0,1.1-.1,2.7-.1,5.4v10.3c0,3.5-.7,6.4-2.8,8.2a11.5,11.5,0,0,1-7.5,2.3,13.7,13.7,0,0,1-6.6-1.5l1.2-4.3a10.8,10.8,0,0,0,5.3,1.4c2.7,0,4.8-1.5,4.8-4.8v-1.2h-.1a6.1,6.1,0,0,1-5,2.4c-4.5,0-7.7-3.7-7.7-9s3.8-9.6,8.3-9.6a5.5,5.5,0,0,1,5,2.6h.1l.2-2.2Zm-5.8,7.4c0-.3-.1-.7-.1-1a3.1,3.1,0,0,0-3.1-2.5c-2.1,0-3.8,1.9-3.8,5.2s1.4,4.9,3.8,4.9a3.1,3.1,0,0,0,3-2.4,6.8,6.8,0,0,0,.2-1.5Z"/><path class="cls-3" d="M507.3,129.7c.2,2.3,2.6,3.5,5.2,3.5a16,16,0,0,0,5.1-.8l.7,3.9a18.6,18.6,0,0,1-6.6,1.1c-6.2,0-9.8-3.6-9.8-9.3s2.9-9.8,9.3-9.8,8.1,4.6,8.1,9.1c0,1-.1,1.9-.1,2.3Zm6.8-3.9c0-1.4-.6-3.7-3.3-3.7s-3.3,2.1-3.5,3.7Z"/></g></g></svg>