<svg xmlns="http://www.w3.org/2000/svg" width="102.025" height="106.123" viewBox="0 0 102.025 106.123">
  <g id="Groupe_622" data-name="Groupe 622" transform="translate(-11.196 79.41) rotate(-74)">
    <path id="Tracé_92" data-name="Tracé 92" d="M887.086,544.476a4.031,4.031,0,0,1-1.718-1.169A22.416,22.416,0,0,1,883.6,545.9a24.134,24.134,0,0,1-1.944,2.181,22.636,22.636,0,0,1-8.12,5.142,28.561,28.561,0,0,1-9.632,1.682,21.464,21.464,0,0,1-7.646-1.23c-.573-.208-1.133-.433-1.693-.683-.444-.2-.9-.421-1.346-.658a42.765,42.765,0,0,0,4.514-6.641,67.236,67.236,0,0,0,4.447-9.79c.6-1.639,1.17-3.344,1.688-5.075.256-.853.5-1.712.731-2.583l.329-1.3.262-1.127.116-.506-.323-.494a2.051,2.051,0,0,0-.95-.725l-.122-.054-1.036-.214h-.14a2.063,2.063,0,0,0-1.049.219,1.356,1.356,0,0,0-.5.468,1.314,1.314,0,0,0-.2.506l-.213.914-.311,1.237c-.213.816-.439,1.632-.682,2.443-.481,1.639-1.017,3.259-1.6,4.825a63.139,63.139,0,0,1-4.142,9.193,38.426,38.426,0,0,1-4.417,6.428,36.69,36.69,0,0,1-3.089-2.6,70.992,70.992,0,0,1-6.768-7.561l-1.091-1.364c-.719-.908-1.444-1.821-2.186-2.729a34.333,34.333,0,0,0-3.79-4.052,10.877,10.877,0,0,0-2.638-1.743c-.165-.072-.335-.146-.512-.207a6.562,6.562,0,0,0-3.174-.292,10.791,10.791,0,0,0-5.611,2.93,16.14,16.14,0,0,0-5.093,10.54,13.263,13.263,0,0,0,1.035,6.032,14.912,14.912,0,0,0,3.467,4.91,25.848,25.848,0,0,0,9.6,5.532l.3.11a19.769,19.769,0,0,0,11.277.755,20.866,20.866,0,0,0,9.163-5.13,27.485,27.485,0,0,0,2.516,1.261c.566.25,1.139.475,1.717.682a25.417,25.417,0,0,0,9.236,1.438,32.038,32.038,0,0,0,10.8-2.016,26.143,26.143,0,0,0,11.837-9.01,23.6,23.6,0,0,0,1.809-2.833A4.285,4.285,0,0,1,887.086,544.476Zm-46.734,11.776a15.743,15.743,0,0,1-9.071-.676l-.238-.085a22.038,22.038,0,0,1-8.005-4.564,10.83,10.83,0,0,1-2.528-3.545,9.258,9.258,0,0,1-.725-4.155,12.033,12.033,0,0,1,3.747-7.816,7.076,7.076,0,0,1,3.454-1.919,2.444,2.444,0,0,1,1.249.1c.068.024.129.049.2.079a6.911,6.911,0,0,1,1.67,1.109,30.756,30.756,0,0,1,3.338,3.552c.713.852,1.42,1.73,2.12,2.608l1.145,1.425a74.7,74.7,0,0,0,7.2,7.914c.98.908,1.974,1.748,2.973,2.5A16.133,16.133,0,0,1,840.352,556.252Z" transform="translate(-815.645 -463.916)" fill="#2bc4be"/>
    <path id="Tracé_93" data-name="Tracé 93" d="M884.4,477.6a13.292,13.292,0,0,1-5.411-3.856,17.819,17.819,0,0,1-3.683-7.206c-1.1-4.365-1.12-9.193-.074-15.2a64.928,64.928,0,0,1,1.758-7.256c.359-1.189.753-2.376,1.167-3.529a31.23,31.23,0,0,1,1.463-3.533,15.916,15.916,0,0,1,5.028-6.219A9.769,9.769,0,0,1,893,429.339l1.287.4-1.171,3.144-1.161-.385a5.77,5.77,0,0,0-2.758-.142,6.672,6.672,0,0,0-2.672,1.14,12.878,12.878,0,0,0-3.935,4.993,39.556,39.556,0,0,0-2.33,6.56,60.935,60.935,0,0,0-1.511,6.875c-.833,5.416-.735,9.872.3,13.615a14.023,14.023,0,0,0,2.9,5.607,17.491,17.491,0,0,0,4.615,3.418l1.566.926-.963,2.714-1.039-.159A9.558,9.558,0,0,1,884.4,477.6Z" transform="translate(-838.072 -427.743)" fill="#2bc4be"/>
    <path id="Tracé_94" data-name="Tracé 94" d="M903.795,486.043a10.318,10.318,0,0,1-1.4-.61l-.971-.512.995-2.8,1.073.207a17.754,17.754,0,0,0,6.442.42,14.045,14.045,0,0,0,5.82-2.548c3.157-2.267,6.037-5.675,8.8-10.421a61.535,61.535,0,0,0,3.146-6.308,40.112,40.112,0,0,0,2.308-6.552,12.868,12.868,0,0,0,.084-6.363,6.764,6.764,0,0,0-1.349-2.559,5.827,5.827,0,0,0-2.236-1.634l-1.141-.434,1.069-3.174,1.248.5a9.743,9.743,0,0,1,5.571,6.394,15.916,15.916,0,0,1-.013,8,30.426,30.426,0,0,1-1.1,3.669c-.4,1.149-.848,2.319-1.319,3.467a65.075,65.075,0,0,1-3.215,6.726c-2.986,5.325-6.049,9.051-9.642,11.731a17.816,17.816,0,0,1-7.378,3.265A13.5,13.5,0,0,1,903.795,486.043Z" transform="translate(-848.355 -433.003)" fill="#2bc4be"/>
    <path id="Tracé_95" data-name="Tracé 95" d="M900.087,428.867c.435-1.227,1.265-2.049,1.855-1.839l3.424,2.315c.369.131.442.882.161,1.671l-.255.719c-.281.792-.807,1.327-1.177,1.2l-4.119-.357c-.59-.208-.717-1.373-.283-2.6Z" transform="translate(-847.595 -426.995)" fill="#2bc4be"/>
    <path id="Tracé_96" data-name="Tracé 96" d="M942.926,444.545c.436-1.226.289-2.394-.322-2.611l-4.253-.406c-.383-.136-.921.4-1.2,1.189l-.256.717c-.28.792-.2,1.544.184,1.68l3.559,2.364c.611.217,1.46-.6,1.9-1.825Z" transform="translate(-861.815 -432.529)" fill="#2bc4be"/>
    <path id="Tracé_97" data-name="Tracé 97" d="M892.243,517.467a6.035,6.035,0,0,1-3.258-1.154c-.748-.266-1.213-10.654-.923-12.9.222-1.719,2.371-2.488,4-1.908l7.109,2.52c1.632.578,2.819,2.531,1.909,4C899.893,509.959,892.991,517.733,892.243,517.467Z" transform="translate(-843.225 -455.332)" fill="#2bc4be"/>
    <path id="Tracé_98" data-name="Tracé 98" d="M931.305,539.725a7.191,7.191,0,1,0-4.807,13.556c.189.068.372.122.56.171a7.19,7.19,0,0,0,4.246-13.726Zm1.474,8.152a4.127,4.127,0,0,1-3.912,2.741,4.285,4.285,0,0,1-1.34-.238,4.03,4.03,0,0,1-1.718-1.169,4.112,4.112,0,1,1,6.969-1.335Z" transform="translate(-856.088 -469.821)" fill="#2bc4be"/>
  </g>
</svg>
